<svg xmlns="http://www.w3.org/2000/svg" viewBox="200 130 720 1130">
  <defs>
    <linearGradient id="fav-gold" x1="0.05" y1="0" x2="0.95" y2="1">
      <stop offset="0%"   stop-color="#F0D294"/>
      <stop offset="45%"  stop-color="#D2AC5C"/>
      <stop offset="100%" stop-color="#B08A2C"/>
    </linearGradient>
  </defs>
  <path d="M560 148 L903 330 L896 700 C890 902 770 1088 560 1214 C350 1088 230 902 224 700 L217 330 Z"
        fill="url(#fav-gold)" stroke="#8A6A1E" stroke-width="18" stroke-linejoin="round"/>
  <!-- Bei kleiner Darstellung nur Lambda und Schloss, ohne Zierlinie und Innenrahmen -->
  <g fill="#0E2A4A">
    <path d="M560 268 L800 780 L828 780 L828 812 L648 812 L648 780 L676 780 L560 490
             L444 780 L472 780 L472 812 L292 812 L292 780 L320 780 Z"/>
    <path d="M508 950 L508 906 A52 52 0 0 1 612 906 L612 950" fill="none" stroke="#0E2A4A" stroke-width="34"/>
    <rect x="454" y="942" width="212" height="152" rx="24"/>
  </g>
  <circle cx="560" cy="1018" r="30" fill="url(#fav-gold)"/>
</svg>
